<svg xmlns="http://www.w3.org/2000/svg" xmlns:xlink="http://www.w3.org/1999/xlink" fill="none" version="1.1" width="24" height="24" viewBox="0 0 24 24"><defs><clipPath id="master_svg0_135_5"><rect x="-0.75" y="-0.75" width="25.5" height="25.5" rx="0"/></clipPath></defs><g clip-path="url(#master_svg0_135_5)"><g transform="matrix(-2.2348338291067193e-8,-1,1,-2.2348338291067193e-8,-18.999999944129154,24.000000480489273)"><path d="M8.2240906,22.24893212Q8.295516,22.24539483,8.3649855,22.2284205Q8.4344549,22.21144617,8.4994636,22.1816467Q8.5644722,22.15184736,8.6226759,22.1102972Q8.6808796,22.06874716,8.7301798,22.01694429Q8.7794809,21.96514153,8.818100900000001,21.90495375Q8.8567219,21.84476596,8.8832684,21.77836317Q8.9098163,21.71196039,8.9233332,21.64173664Q8.936851,21.571512893,8.9368505,21.5Q8.9368505,21.426146217,8.922442,21.35371152Q8.9080338,21.28127682,8.8797712,21.21304482Q8.8515081,21.14481282,8.810477299999999,21.08340567Q8.7694464,21.02199849,8.7172241,20.96977597Q8.665001400000001,20.91755348,8.603593799999999,20.87652254Q8.5421867,20.83549154,8.4739547,20.80722892Q8.4057226,20.77896631,8.3332882,20.7645582Q8.2608538,20.75014997,8.187000300000001,20.75014997Q8.168443700000001,20.75014997,8.1499104,20.75106782L8.1499028,20.75091803Q6.4108665,20.83704185,5.367066400000001,21.14334634Q4.1232619,21.5083424309,3.31610006,22.317239999999998Q2.5083421767,23.1232629,2.14334616,24.3670671Q1.8370418,25.410867,1.75091803,27.1499028L1.75106782,27.1499104Q1.75014997,27.1684437,1.75014997,27.1870003Q1.75014997,27.2608538,1.7645582,27.3332887Q1.77896631,27.4057231,1.80722892,27.4739552Q1.83549154,27.542186700000002,1.8765225399999999,27.6035943Q1.91755348,27.6650014,1.9697759700000002,27.7172241Q2.02199849,27.7694464,2.08340567,27.8104773Q2.14481282,27.8515081,2.21304482,27.8797712Q2.28127682,27.9080338,2.35371152,27.9224424Q2.426146217,27.9368505,2.5,27.9368505Q2.571512893,27.9368505,2.64173664,27.9233336Q2.7119603899999998,27.9098167,2.77836317,27.8832688Q2.84476596,27.8567219,2.90495375,27.8181014Q2.96514153,27.7794809,3.01694429,27.730179800000002Q3.06874716,27.6808796,3.11029726,27.6226759Q3.15184736,27.5644722,3.1816467,27.4994631Q3.21144617,27.4344549,3.2284205,27.3649855Q3.24539483,27.295516,3.24893212,27.2240906L3.2490819699999998,27.2240982Q3.32641155,25.6626358,3.5826538,24.789434Q3.8395693,23.913938,4.3778988000000005,23.3767605Q4.913937300000001,22.8395694,5.7894331999999995,22.582654Q6.6626353,22.32641166,8.2240982,22.24908197L8.2240906,22.24893212ZM15.850089,20.75106782L15.850097,20.75091803Q17.589132,20.83704174,18.632933,21.14334634Q19.876738,21.5083423462,20.683901,22.31723976Q21.491659,23.1232638,21.856655,24.3670671Q22.16296,25.4108672,22.249084,27.1499023L22.248932,27.14991Q22.249849,27.1684437,22.249849,27.1870003Q22.249847,27.2608538,22.235439,27.3332887Q22.221031,27.4057231,22.192768,27.4739552Q22.164505,27.542186700000002,22.123474,27.6035943Q22.082443,27.6650014,22.030222,27.7172241Q21.977999,27.7694464,21.916592,27.8104773Q21.855185,27.8515081,21.786953,27.8797712Q21.718721,27.9080338,21.646288,27.9224424Q21.573853,27.9368505,21.5,27.9368505Q21.42849,27.9368505,21.358265,27.9233336Q21.288042,27.9098167,21.221638,27.8832688Q21.155235,27.8567219,21.095049,27.8181014Q21.034863,27.7794809,20.983057,27.730179800000002Q20.931255,27.6808796,20.889706,27.6226759Q20.848156,27.5644722,20.818356,27.4994631Q20.788557,27.4344549,20.771582,27.3649859Q20.754608,27.295517,20.751068,27.2240911L20.750919,27.2240982Q20.673588,25.6626358,20.417347,24.789434Q20.160431,23.913938,19.622103,23.3767607Q19.086063,22.8395698,18.210566999999998,22.582654Q17.337364,22.32641149,15.775903,22.24908197L15.77591,22.24893218Q15.704486,22.245395,15.635016,22.22842073Q15.565547,22.2114464,15.500538,22.181647Q15.43553,22.15184772,15.377326,22.11029756Q15.319122,22.06874752,15.26982,22.01694465Q15.22052,21.96514186,15.1819,21.90495405Q15.14328,21.8447662,15.116732,21.77836338Q15.090185,21.71196055,15.076668,21.64173675Q15.06315,21.571512952,15.063149,21.5Q15.063148,21.426146217,15.077557,21.35371152Q15.091965,21.28127682,15.120228,21.21304482Q15.148491,21.14481282,15.189522,21.08340567Q15.230553,21.02199849,15.282775,20.96977597Q15.334997,20.91755348,15.396404,20.87652254Q15.457811,20.83549154,15.526043,20.80722892Q15.594276,20.77896631,15.666711,20.7645582Q15.739146,20.75014997,15.813,20.75014997Q15.831556,20.75014997,15.850089,20.75106782ZM7.2501497,26Q7.2501497,25.9261465,7.2645574,25.853711099999998Q7.2789655,25.7812767,7.3072281,25.7130442Q7.3354907,25.6448121,7.3765216,25.583405Q7.4175529,25.5219979,7.4697752,25.4697757Q7.5219975,25.4175529,7.5834045,25.3765223Q7.6448121,25.3354912,7.7130442,25.307228600000002Q7.7812767,25.2789662,7.8537111,25.2645581Q7.926146,25.25015,8,25.25015Q8.0738535,25.25015,8.1462879,25.2645581Q8.2187223,25.2789662,8.286954399999999,25.307228600000002Q8.3551865,25.3354912,8.416594,25.3765221Q8.4780011,25.4175529,8.5302238,25.4697757Q8.5824461,25.5219979,8.6234775,25.583405Q8.6645083,25.6448121,8.692771,25.7130442Q8.7210336,25.7812767,8.7354422,25.853711099999998Q8.7498503,25.9261465,8.7498503,26L8.75,26L8.75,36L8.7498503,36Q8.7498503,36.073853,8.735441699999999,36.146287Q8.7210331,36.218721,8.6927705,36.286953Q8.6645079,36.355186,8.6234775,36.416594Q8.5824461,36.478001,8.5302238,36.530224000000004Q8.4780011,36.582446,8.416593599999999,36.623477Q8.3551865,36.664507,8.286954399999999,36.692769999999996Q8.2187223,36.721033,8.1462879,36.735441Q8.0738535,36.749849,8,36.74985Q7.926146,36.749849,7.8537111,36.735441Q7.7812767,36.721033,7.7130442,36.692769999999996Q7.6448121,36.664507,7.583405,36.623477Q7.5219975,36.582446,7.4697752,36.530224000000004Q7.4175529,36.478001,7.3765216,36.416594Q7.3354907,36.355186,7.3072281,36.286954Q7.2789655,36.218721,7.2645574,36.146286Q7.2501497,36.073853,7.2501497,36L7.25,36L7.25,26L7.2501497,26ZM11.2501497,26Q11.2501488,25.9261465,11.2645569,25.853711099999998Q11.278965,25.7812767,11.3072271,25.7130442Q11.3354893,25.6448121,11.3765211,25.583405Q11.417552,25.5219979,11.4697752,25.4697757Q11.5219975,25.4175529,11.5834045,25.3765223Q11.6448116,25.3354912,11.7130442,25.307228600000002Q11.7812767,25.2789662,11.8537121,25.2645581Q11.9261465,25.25015,12,25.25015Q12.0738544,25.25015,12.1462879,25.2645581Q12.2187233,25.2789662,12.2869549,25.307228600000002Q12.3551865,25.3354912,12.4165936,25.3765221Q12.4780006,25.4175529,12.530224,25.4697757Q12.582445,25.5219979,12.623476,25.583405Q12.664507,25.6448121,12.69277,25.7130442Q12.721033,25.7812767,12.735441,25.853711099999998Q12.749849,25.9261465,12.74985,26L12.75,26L12.75,32L12.74985,32Q12.749849,32.073853,12.735441,32.146288Q12.721033,32.218722,12.69277,32.286955Q12.664507,32.355186,12.623476,32.416594Q12.582445,32.478001,12.530224,32.530224000000004Q12.4780006,32.582446,12.4165936,32.623477Q12.3551865,32.664507,12.2869549,32.692769999999996Q12.2187233,32.721033,12.1462879,32.735441Q12.0738544,32.749849,12,32.74985Q11.9261465,32.749849,11.8537121,32.735441Q11.7812767,32.721033,11.7130442,32.692769999999996Q11.6448116,32.664507,11.5834045,32.623476Q11.5219975,32.582445,11.4697752,32.530223Q11.417552,32.478001,11.3765211,32.416594Q11.3354902,32.355186,11.3072281,32.286954Q11.278965,32.218721,11.2645569,32.146288Q11.2501488,32.073853,11.2501497,32L11.25,32L11.25,26L11.2501497,26ZM15.25015,26Q15.250149,25.9261465,15.264557,25.853711099999998Q15.278965,25.7812767,15.307227,25.7130442Q15.335489,25.6448121,15.376521,25.583405Q15.417551,25.5219979,15.469774,25.4697757Q15.521996,25.4175529,15.583404,25.3765223Q15.644812,25.3354912,15.713043,25.307228600000002Q15.781276,25.2789662,15.853711,25.2645581Q15.926146,25.25015,16,25.25015Q16.073853,25.25015,16.146287,25.2645581Q16.218721000000002,25.2789662,16.286953,25.307228600000002Q16.355185,25.3354912,16.416593,25.3765221Q16.478001,25.4175529,16.530223,25.4697757Q16.582445,25.5219979,16.623476,25.583405Q16.664507,25.6448121,16.692769,25.7130442Q16.721032,25.7812767,16.73544,25.853711099999998Q16.749848999999998,25.9261465,16.749850000000002,26L16.75,26L16.75,36L16.749850000000002,36Q16.749848999999998,36.073853,16.735441,36.146287Q16.721033,36.218721,16.69277,36.286953Q16.664507,36.355186,16.623476,36.416594Q16.582445,36.478001,16.530224,36.530224000000004Q16.478001,36.582446,16.416594,36.623477Q16.355186,36.664507,16.286954,36.692769999999996Q16.218721000000002,36.721033,16.146288,36.735441Q16.073853,36.749849,16,36.74985Q15.926146,36.749849,15.853711,36.735441Q15.781276,36.721033,15.713043,36.692769999999996Q15.644812,36.664507,15.583405,36.623477Q15.521997,36.582446,15.469775,36.530224000000004Q15.417552,36.478001,15.376521,36.416594Q15.335489,36.355186,15.307227,36.286954Q15.278965,36.218721,15.264557,36.146286Q15.250149,36.073853,15.25015,36L15.25,36L15.25,26L15.25015,26ZM3.2489321799999997,34.775909999999996L3.2490819699999998,34.775903Q3.32641149,36.337364,3.582654,37.210567Q3.8395698,38.086062999999996,4.3767607,38.622102999999996Q4.913938,39.160431,5.789434,39.417347Q6.6626358,39.673587999999995,8.2240982,39.750918999999996L8.224091099999999,39.751068000000004Q8.295517,39.754608000000005,8.3649859,39.771581999999995Q8.434455400000001,39.788557,8.4994636,39.818356Q8.5644722,39.848156,8.6226759,39.889706000000004Q8.6808796,39.931255,8.7301798,39.983057Q8.7794809,40.034863,8.818100900000001,40.095049Q8.8567219,40.155235000000005,8.8832684,40.221638Q8.9098163,40.288042000000004,8.9233332,40.358265Q8.936851,40.42849,8.9368505,40.5Q8.9368505,40.573853,8.922442,40.646288Q8.9080338,40.718721,8.8797712,40.786953Q8.8515081,40.855185,8.810477299999999,40.916592Q8.7694464,40.977999,8.7172241,41.030221999999995Q8.665001400000001,41.082443,8.603593799999999,41.123474Q8.5421867,41.164505,8.4739547,41.192768Q8.4057226,41.221030999999996,8.3332882,41.235439Q8.2608538,41.249847,8.187000300000001,41.249849Q8.168443700000001,41.249849,8.14991,41.248931999999996L8.1499023,41.249083999999996Q6.4108672,41.16296,5.3670671,40.856655Q4.1232638,40.491659,3.31723976,39.683901Q2.5083423462,38.876738,2.14334634,37.632933Q1.83704174,36.589132,1.75091803,34.850097L1.75106782,34.850089Q1.75014997,34.831556,1.75014997,34.813Q1.75014997,34.739146,1.7645582,34.666712000000004Q1.77896631,34.594276,1.80722892,34.526043Q1.83549154,34.457811,1.8765225399999999,34.396403Q1.91755348,34.334997,1.9697759700000002,34.282774Q2.02199849,34.230551,2.08340567,34.18952Q2.14481282,34.148489,2.21304482,34.120227Q2.28127682,34.091965,2.35371152,34.077557Q2.426146217,34.063148999999996,2.5,34.063148999999996Q2.571512952,34.06315,2.64173675,34.076668Q2.71196055,34.090185,2.77836338,34.116732Q2.8447662,34.143280000000004,2.90495405,34.1819Q2.96514186,34.220521,3.01694465,34.269821Q3.06874752,34.319122,3.1102975600000002,34.377326Q3.15184772,34.43553,3.181647,34.500538Q3.2114464,34.565547,3.22842073,34.635016Q3.2453950000000003,34.704486,3.2489321799999997,34.775909999999996ZM22.248932,34.850089Q22.249849,34.831555,22.249849,34.813Q22.249847,34.739146,22.235439,34.666712000000004Q22.221031,34.594276,22.192768,34.526043Q22.164505,34.457811,22.123474,34.396403Q22.082443,34.334997,22.030222,34.282774Q21.977999,34.230551,21.916592,34.18952Q21.855185,34.148489,21.786953,34.120227Q21.718721,34.091965,21.646288,34.077557Q21.573853,34.063148999999996,21.5,34.063148999999996Q21.428488,34.06315,21.358263,34.076668Q21.28804,34.090185,21.221636,34.116732Q21.155235,34.143280000000004,21.095047,34.1819Q21.034859,34.220521,20.983055,34.269821Q20.931253,34.319122,20.889702,34.377326Q20.848152,34.43553,20.818352,34.500538Q20.788555,34.565547,20.77158,34.635016Q20.754606,34.704486,20.751068,34.775909999999996L20.750919,34.775903Q20.673588,36.337362999999996,20.417347,37.210567Q20.160431,38.086062999999996,19.62324,38.622102999999996Q19.086063,39.160431,18.210566999999998,39.417347Q17.337363,39.673587999999995,15.775903,39.750918999999996L15.77591,39.751068000000004Q15.704486,39.754605999999995,15.635016,39.77158Q15.565547,39.788555,15.500538,39.818352000000004Q15.43553,39.848152,15.377326,39.889703999999995Q15.319122,39.931253,15.26982,39.983055Q15.22052,40.034859,15.1819,40.095047Q15.14328,40.155235000000005,15.116732,40.221636000000004Q15.090185,40.288039999999995,15.076668,40.358263Q15.06315,40.428488,15.063149,40.5Q15.063148,40.573853,15.077557,40.646288Q15.091965,40.718721,15.120228,40.786953Q15.148491,40.855185,15.189522,40.916592Q15.230553,40.977999,15.282775,41.030221999999995Q15.334997,41.082443,15.396404,41.123474Q15.457811,41.164505,15.526043,41.192768Q15.594276,41.221030999999996,15.666711,41.235439Q15.739146,41.249847,15.813,41.249849Q15.831555,41.249849,15.850089,41.248931999999996L15.850097,41.249083999999996Q17.589132,41.16296,18.632933,40.856655Q19.876736,40.491659,20.682762,39.683901Q21.491659,38.876736,21.856655,37.632933Q22.16296,36.589133000000004,22.249084,34.850097L22.248932,34.850089ZM12.74985,36L12.75,36L12.75,36.01L12.74985,36.01Q12.749849,36.083853,12.735441,36.156287Q12.721033,36.228722,12.69277,36.296953Q12.664507,36.365185,12.623476,36.426592Q12.582445,36.487999,12.530224,36.540223Q12.4780006,36.592445,12.4165936,36.633477Q12.3551865,36.674507,12.2869549,36.70277Q12.2187233,36.731033,12.1462879,36.745441Q12.0738544,36.75985,12,36.759851Q11.9261465,36.75985,11.8537121,36.745441Q11.7812767,36.731033,11.7130442,36.702769Q11.6448116,36.674507,11.5834045,36.633475000000004Q11.5219975,36.592444,11.4697752,36.540222Q11.417552,36.487999,11.3765211,36.426592Q11.3354902,36.365185,11.3072281,36.296953Q11.278965,36.228722,11.2645569,36.156288Q11.2501488,36.083853,11.2501497,36.01L11.25,36.01L11.25,36L11.2501497,36Q11.2501488,35.926146,11.2645569,35.853711000000004Q11.278965,35.781276,11.3072271,35.713043Q11.3354893,35.644812,11.3765211,35.583404Q11.417552,35.521996,11.4697752,35.469774Q11.5219975,35.417551,11.5834045,35.376521Q11.6448116,35.33549,11.7130442,35.307228Q11.7812767,35.278966,11.8537121,35.264558Q11.9261465,35.25015,12,35.25015Q12.0738544,35.25015,12.1462879,35.264558Q12.2187233,35.278965,12.2869549,35.307227Q12.3551865,35.335489,12.4165936,35.376521Q12.4780006,35.417551,12.530224,35.469774Q12.582445,35.521996,12.623476,35.583404Q12.664507,35.644812,12.69277,35.713043Q12.721033,35.781276,12.735441,35.85371Q12.749849,35.926146,12.74985,36Z" fill-rule="evenodd" fill="#000000" fill-opacity="1"/></g></g></svg>